<svg xmlns="http://www.w3.org/2000/svg" xmlns:xlink="http://www.w3.org/1999/xlink" width="500" zoomAndPan="magnify" viewBox="0 0 375 374.999991" height="500" preserveAspectRatio="xMidYMid meet" version="1.0"><defs><clipPath id="id1"><path d="M 109 107.492188 L 266 107.492188 L 266 169 L 109 169 Z M 109 107.492188 " clip-rule="nonzero"/></clipPath><clipPath id="id2"><path d="M 107.492188 191 L 217 191 L 217 267.242188 L 107.492188 267.242188 Z M 107.492188 191 " clip-rule="nonzero"/></clipPath></defs><g clip-path="url(#id1)"><path fill="#145da0" d="M 187.632812 115.722656 C 223.039062 115.722656 253.289062 137.699219 265.535156 168.753906 C 257.03125 133.597656 225.390625 107.480469 187.621094 107.480469 C 149.800781 107.480469 118.113281 133.664062 109.664062 168.890625 C 121.875 137.761719 152.171875 115.722656 187.632812 115.722656 " fill-opacity="1" fill-rule="nonzero"/></g><path fill="#1893f8" d="M 263.84375 189.671875 C 260.164062 185.710938 252.609375 185.714844 249.25 186.058594 C 253.746094 181.183594 256.492188 174.675781 256.492188 167.519531 C 256.492188 152.40625 244.238281 140.152344 229.125 140.152344 C 214.007812 140.152344 201.757812 152.40625 201.757812 167.519531 C 201.757812 177.945312 207.585938 187.007812 216.164062 191.628906 C 216.164062 191.628906 190.800781 203.839844 176.730469 227.839844 C 180.757812 223.214844 189.316406 222.265625 201.425781 228.382812 C 233.054688 211.953125 240.746094 244.570312 205.886719 264.914062 C 235.433594 257.605469 259.53125 233.554688 265.683594 202.882812 C 266.523438 198.691406 267.113281 193.195312 263.84375 189.671875 " fill-opacity="1" fill-rule="nonzero"/><path fill="#76b9f0" d="M 142.949219 212.253906 C 152.539062 212.253906 160.3125 204.480469 160.3125 194.886719 C 160.3125 185.296875 152.539062 177.519531 142.949219 177.519531 C 133.355469 177.519531 125.582031 185.296875 125.582031 194.886719 C 125.582031 204.480469 133.355469 212.253906 142.949219 212.253906 " fill-opacity="1" fill-rule="nonzero"/><g clip-path="url(#id2)"><path fill="#76b9f0" d="M 216.164062 191.628906 C 180.4375 205.445312 144.894531 235.824219 107.609375 197.613281 C 112.792969 236.890625 146.382812 267.214844 187.082031 267.214844 C 191.324219 267.214844 195.515625 266.863281 199.621094 266.195312 C 179.238281 255.476562 171.941406 240.464844 174.691406 231.5625 L 174.675781 231.585938 L 174.691406 231.5625 C 175.125 230.15625 175.808594 228.898438 176.730469 227.839844 C 190.800781 203.839844 216.164062 191.628906 216.164062 191.628906 " fill-opacity="1" fill-rule="nonzero"/></g></svg>